<?xml version="1.0" encoding="UTF-8"?>
<svg height="600" width="800" xmlns="http://www.w3.org/2000/svg" xmlns:xlink="http://www.w3.org/1999/xlink">
    <g id="Notes" font-family="'LucidaGrande', 'Lucida Grande', sans-serif" font-size="13">
        <rect fill="white" height="600.0" width="800.0" x="0.0" y="0.0" />
        <g font-size="13">
            <text x="18.0" y="176.0">Small</text>
            <text x="18.0" y="376.0">Medium</text>
            <text x="18.0" y="576.0">Large</text>
        </g>
        <g font-size="9">
            <text x="250.0" y="30.0">Ultralight</text>
            <text x="450.0" y="30.0">Regular</text>
            <text x="650.0" y="30.0">Black</text>
            <text id="template-version" fill="#505050" text-anchor="end" x="785.0" y="575.0">Template v.3.0</text>
            <a href="https://wangchujiang.com/#/app">
                <text fill="#505050" text-anchor="end" x="785.0" y="590.0">https://wangchujiang.com/#/app</text>
            </a>
        </g>
    </g>
    <g id="Guides" stroke="rgb(39, 170, 225)" stroke-width="0.5">
        <path id="Capline-S" d="M18,76 l800,0" />
        <path id="H-reference" d="M85,145.755 L87.685,145.755 L113.369,79.287 L114.052,79.287 L114.052,76 L112.148,76 L85,145.755 Z M95.693,121.536 L130.996,121.536 L130.263,119.313 L96.474,119.313 L95.693,121.536 Z M139.15,145.755 L141.787,145.755 L114.638,76 L113.466,76 L113.466,79.287 L139.15,145.755 Z" stroke="none" />
        <path id="Baseline-S" d="M18,146 l800,0" />
        <path id="left-margin-Ultralight-S" d="M211,56 l0,110" />
        <path id="right-margin-Ultralight-S" d="M319,56 l0,110" />
        <path id="left-margin-Regular-S" d="M411,56 l0,110" />
        <path id="right-margin-Regular-S" d="M519,56 l0,110" />
        <path id="left-margin-Black-S" d="M611,56 l0,110" />
        <path id="right-margin-Black-S" d="M719,56 l0,110" />
        <path id="Capline-M" d="M18,276 l800,0" />
        <path id="Baseline-M" d="M18,346 l800,0" />
        <path id="Capline-L" d="M18,476 l800,0" />
        <path id="Baseline-L" d="M18,546 l800,0" />
    </g>
    <g id="Symbols">
        <g id="Ultralight-S">
            <path d="M241.361,111.508 C242.604,111.508 243.612,110.5 243.612,109.257 C243.612,108.014 242.604,107.006 241.361,107.006 C240.118,107.006 239.11,108.014 239.11,109.257 C239.11,110.5 240.118,111.508 241.361,111.508" />
            <path d="M246.157,113.259 C246.156,113.264 246.156,113.254 246.155,113.259 L235.374,113.274 C233.489,113.274 233.195,110.915 233.195,110.915 L229.121,110.915 C229.121,110.915 229.538,117.29 235.374,117.29 L243.71,117.29 C244.141,117.29 243.962,117.695 243.688,118.085 C241.745,120.249 238.928,121.61 235.791,121.61 C229.931,121.61 225.18,116.86 225.18,111 C225.18,105.14 229.931,100.389 235.791,100.389 C241.627,100.389 246.361,105.102 246.399,110.929 L250.58,110.929 C250.541,102.793 243.936,96.209 235.791,96.209 C227.622,96.209 221,102.831 221,111 C221,119.168 227.622,125.791 235.791,125.791 C243.191,125.791 249.322,120.356 250.41,113.259 Z" />
            <path d="M254.15,114.889 L254.15,113.259 L250.256,113.259 L250.256,125.175 L254.15,125.175 L254.15,119.128 C254.492,118.569 255.611,117.032 257.475,117.195 L257.475,113.103 C256.32,112.844 254.677,114.363 254.15,114.889" />
            <path d="M265.925,120.777 C265.417,121.686 264.445,122.301 263.329,122.301 C262.778,122.301 262.264,122.149 261.821,121.888 L269.2,117.409 C268.466,114.858 266.116,112.991 263.329,112.991 C259.956,112.991 257.22,115.726 257.22,119.1 C257.22,122.474 259.956,125.209 263.329,125.209 C266.122,125.209 268.475,123.335 269.204,120.777 Z M263.329,116.353 C263.825,116.353 264.292,116.475 264.703,116.69 L260.359,119.254 C260.398,117.646 261.712,116.353 263.329,116.353" />
            <path d="M287.287,97.207 L291.607,97.207 L291.607,125.175 L287.287,125.175 Z" />
            <path d="M293.047,113.577 L297.063,113.577 L297.063,125.175 L293.047,125.175 Z" />
            <path d="M295.018,111.508 C296.261,111.508 297.268,110.5 297.268,109.257 C297.268,108.014 296.261,107.006 295.018,107.006 C293.775,107.006 292.767,108.014 292.767,109.257 C292.767,110.5 293.775,111.508 295.018,111.508" />
            <path d="M309,116.144 C309,112.379 304.098,112.478 303.231,113.97 C303.013,114.344 302.791,114.084 302.791,114.084 C302.753,113.976 302.713,113.902 302.672,113.854 L302.672,113.425 L298.807,113.425 L298.807,125.175 L302.672,125.175 L302.672,117.128 C302.672,116.101 304.993,115.845 304.993,116.94 L304.993,125.175 L309,125.175 Z" />
            <path d="M279.993,114.048 C279.681,114.593 279.331,114.76 279.034,114.774 C277.95,112.52 274.306,112.781 273.57,114.048 C273.352,114.422 273.13,114.162 273.13,114.162 C273.092,114.055 273.052,113.979 273.011,113.932 L273.011,113.503 L269.146,113.503 L269.146,125.174 L273.011,125.174 L273.011,117.206 C273.011,116.18 275.332,115.924 275.332,117.018 L275.332,125.174 L279.434,125.174 L279.434,117.206 C279.434,116.18 281.755,115.924 281.755,117.018 L281.755,125.174 L285.762,125.174 L285.762,116.222 C285.762,112.457 280.85,112.55 279.993,114.048" />
        </g>
        <g id="Regular-S">
            <path d="M441.361,111.508 C442.604,111.508 443.612,110.5 443.612,109.257 C443.612,108.014 442.604,107.006 441.361,107.006 C440.118,107.006 439.11,108.014 439.11,109.257 C439.11,110.5 440.118,111.508 441.361,111.508" />
            <path d="M446.157,113.259 C446.156,113.264 446.156,113.254 446.155,113.259 L435.374,113.274 C433.489,113.274 433.195,110.915 433.195,110.915 L429.121,110.915 C429.121,110.915 429.538,117.29 435.374,117.29 L443.71,117.29 C444.141,117.29 443.962,117.695 443.688,118.085 C441.745,120.249 438.928,121.61 435.791,121.61 C429.931,121.61 425.18,116.86 425.18,111 C425.18,105.14 429.931,100.389 435.791,100.389 C441.627,100.389 446.361,105.102 446.399,110.929 L450.58,110.929 C450.541,102.793 443.936,96.209 435.791,96.209 C427.622,96.209 421,102.831 421,111 C421,119.168 427.622,125.791 435.791,125.791 C443.191,125.791 449.322,120.356 450.41,113.259 Z" />
            <path d="M454.15,114.889 L454.15,113.259 L450.256,113.259 L450.256,125.175 L454.15,125.175 L454.15,119.128 C454.492,118.569 455.611,117.032 457.475,117.195 L457.475,113.103 C456.32,112.844 454.677,114.363 454.15,114.889" />
            <path d="M465.925,120.777 C465.417,121.686 464.445,122.301 463.329,122.301 C462.778,122.301 462.264,122.149 461.821,121.888 L469.2,117.409 C468.466,114.858 466.116,112.991 463.329,112.991 C459.956,112.991 457.22,115.726 457.22,119.1 C457.22,122.474 459.956,125.209 463.329,125.209 C466.122,125.209 468.475,123.335 469.204,120.777 Z M463.329,116.353 C463.825,116.353 464.292,116.475 464.703,116.69 L460.359,119.254 C460.398,117.646 461.712,116.353 463.329,116.353" />
            <path d="M487.287,97.207 L491.607,97.207 L491.607,125.175 L487.287,125.175 Z" />
            <path d="M493.047,113.577 L497.063,113.577 L497.063,125.175 L493.047,125.175 Z" />
            <path d="M495.018,111.508 C496.261,111.508 497.268,110.5 497.268,109.257 C497.268,108.014 496.261,107.006 495.018,107.006 C493.775,107.006 492.767,108.014 492.767,109.257 C492.767,110.5 493.775,111.508 495.018,111.508" />
            <path d="M509,116.144 C509,112.379 504.098,112.478 503.231,113.97 C503.013,114.344 502.791,114.084 502.791,114.084 C502.753,113.976 502.713,113.902 502.672,113.854 L502.672,113.425 L498.807,113.425 L498.807,125.175 L502.672,125.175 L502.672,117.128 C502.672,116.101 504.993,115.845 504.993,116.94 L504.993,125.175 L509,125.175 Z" />
            <path d="M479.993,114.048 C479.681,114.593 479.331,114.76 479.034,114.774 C477.95,112.52 474.306,112.781 473.57,114.048 C473.352,114.422 473.13,114.162 473.13,114.162 C473.092,114.055 473.052,113.979 473.011,113.932 L473.011,113.503 L469.146,113.503 L469.146,125.174 L473.011,125.174 L473.011,117.206 C473.011,116.18 475.332,115.924 475.332,117.018 L475.332,125.174 L479.434,125.174 L479.434,117.206 C479.434,116.18 481.755,115.924 481.755,117.018 L481.755,125.174 L485.762,125.174 L485.762,116.222 C485.762,112.457 480.85,112.55 479.993,114.048" />
        </g>
        <g id="Black-S">
            <path d="M641.361,111.508 C642.604,111.508 643.612,110.5 643.612,109.257 C643.612,108.014 642.604,107.006 641.361,107.006 C640.118,107.006 639.11,108.014 639.11,109.257 C639.11,110.5 640.118,111.508 641.361,111.508" />
            <path d="M646.157,113.259 C646.156,113.264 646.156,113.254 646.155,113.259 L635.374,113.274 C633.489,113.274 633.195,110.915 633.195,110.915 L629.121,110.915 C629.121,110.915 629.538,117.29 635.374,117.29 L643.71,117.29 C644.141,117.29 643.962,117.695 643.688,118.085 C641.745,120.249 638.928,121.61 635.791,121.61 C629.931,121.61 625.18,116.86 625.18,111 C625.18,105.14 629.931,100.389 635.791,100.389 C641.627,100.389 646.361,105.102 646.399,110.929 L650.58,110.929 C650.541,102.793 643.936,96.209 635.791,96.209 C627.622,96.209 621,102.831 621,111 C621,119.168 627.622,125.791 635.791,125.791 C643.191,125.791 649.322,120.356 650.41,113.259 Z" />
            <path d="M654.15,114.889 L654.15,113.259 L650.256,113.259 L650.256,125.175 L654.15,125.175 L654.15,119.128 C654.492,118.569 655.611,117.032 657.475,117.195 L657.475,113.103 C656.32,112.844 654.677,114.363 654.15,114.889" />
            <path d="M665.925,120.777 C665.417,121.686 664.445,122.301 663.329,122.301 C662.778,122.301 662.264,122.149 661.821,121.888 L669.2,117.409 C668.466,114.858 666.116,112.991 663.329,112.991 C659.956,112.991 657.221,115.726 657.221,119.1 C657.221,122.474 659.956,125.209 663.329,125.209 C666.122,125.209 668.475,123.335 669.204,120.777 Z M663.329,116.353 C663.825,116.353 664.292,116.475 664.703,116.69 L660.359,119.254 C660.398,117.646 661.712,116.353 663.329,116.353" />
            <path d="M687.287,97.207 L691.607,97.207 L691.607,125.175 L687.287,125.175 Z" />
            <path d="M693.047,113.577 L697.063,113.577 L697.063,125.175 L693.047,125.175 Z" />
            <path d="M695.018,111.508 C696.261,111.508 697.268,110.5 697.268,109.257 C697.268,108.014 696.261,107.006 695.018,107.006 C693.775,107.006 692.767,108.014 692.767,109.257 C692.767,110.5 693.775,111.508 695.018,111.508" />
            <path d="M709,116.144 C709,112.379 704.098,112.478 703.231,113.97 C703.013,114.344 702.791,114.084 702.791,114.084 C702.753,113.976 702.713,113.902 702.672,113.854 L702.672,113.425 L698.807,113.425 L698.807,125.175 L702.672,125.175 L702.672,117.128 C702.672,116.101 704.993,115.845 704.993,116.94 L704.993,125.175 L709,125.175 Z" />
            <path d="M679.993,114.048 C679.681,114.593 679.331,114.76 679.034,114.774 C677.95,112.52 674.306,112.781 673.57,114.048 C673.352,114.422 673.13,114.162 673.13,114.162 C673.092,114.055 673.052,113.979 673.011,113.932 L673.011,113.503 L669.146,113.503 L669.146,125.174 L673.011,125.174 L673.011,117.206 C673.011,116.18 675.332,115.924 675.332,117.018 L675.332,125.174 L679.435,125.174 L679.435,117.206 C679.435,116.18 681.755,115.924 681.755,117.018 L681.755,125.174 L685.762,125.174 L685.762,116.222 C685.762,112.457 680.85,112.55 679.993,114.048" />
        </g>
    </g>
</svg>