<?xml version="1.0" encoding="UTF-8"?>
<svg height="600" width="800" xmlns="http://www.w3.org/2000/svg" xmlns:xlink="http://www.w3.org/1999/xlink">
    <g id="Notes" font-family="'LucidaGrande', 'Lucida Grande', sans-serif" font-size="13">
        <rect fill="white" height="600.0" width="800.0" x="0.0" y="0.0" />
        <g font-size="13">
            <text x="18.0" y="176.0">Small</text>
            <text x="18.0" y="376.0">Medium</text>
            <text x="18.0" y="576.0">Large</text>
        </g>
        <g font-size="9">
            <text x="250.0" y="30.0">Ultralight</text>
            <text x="450.0" y="30.0">Regular</text>
            <text x="650.0" y="30.0">Black</text>
            <text id="template-version" fill="#505050" text-anchor="end" x="785.0" y="575.0">Template v.3.0</text>
            <a href="https://wangchujiang.com/#/app">
                <text fill="#505050" text-anchor="end" x="785.0" y="590.0">https://wangchujiang.com/#/app</text>
            </a>
        </g>
    </g>
    <g id="Guides" stroke="rgb(39, 170, 225)" stroke-width="0.5">
        <path id="Capline-S" d="M18,76 l800,0" />
        <path id="H-reference" d="M85,145.755 L87.685,145.755 L113.369,79.287 L114.052,79.287 L114.052,76 L112.148,76 L85,145.755 Z M95.693,121.536 L130.996,121.536 L130.263,119.313 L96.474,119.313 L95.693,121.536 Z M139.15,145.755 L141.787,145.755 L114.638,76 L113.466,76 L113.466,79.287 L139.15,145.755 Z" stroke="none" />
        <path id="Baseline-S" d="M18,146 l800,0" />
        <path id="left-margin-Ultralight-S" d="M211,56 l0,110" />
        <path id="right-margin-Ultralight-S" d="M319,56 l0,110" />
        <path id="left-margin-Regular-S" d="M411,56 l0,110" />
        <path id="right-margin-Regular-S" d="M519,56 l0,110" />
        <path id="left-margin-Black-S" d="M611,56 l0,110" />
        <path id="right-margin-Black-S" d="M719,56 l0,110" />
        <path id="Capline-M" d="M18,276 l800,0" />
        <path id="Baseline-M" d="M18,346 l800,0" />
        <path id="Capline-L" d="M18,476 l800,0" />
        <path id="Baseline-L" d="M18,546 l800,0" />
    </g>
    <g id="Symbols">
        <g id="Ultralight-S">
            <path d="M279.013,122.718 L290.391,122.718 C290.543,122.718 290.68,122.628 290.741,122.49 L294.988,112.798 L294.988,103.434 C294.988,103.227 295.158,103.057 295.366,103.057 L297.608,103.057 C297.815,103.057 297.985,103.227 297.985,103.434 L297.985,122.469 C297.985,122.605 298.098,122.718 298.235,122.718 L308.751,122.718 C308.887,122.718 309,122.605 309,122.469 L309,99.438 C309,99.301 308.887,99.189 308.751,99.189 L289.39,99.189 C289.239,99.189 289.101,99.279 289.04,99.417 L278.865,122.49 C278.856,122.51 278.851,122.533 278.851,122.555 C278.851,122.645 278.924,122.718 279.013,122.718 Z M221.249,122.718 L231.956,122.718 C232.092,122.718 232.205,122.605 232.205,122.469 L232.205,103.27 C232.205,103.133 232.318,103.021 232.455,103.021 L234.964,103.021 C235.101,103.021 235.213,103.133 235.213,103.27 L235.213,113.263 L239.471,122.491 C239.534,122.629 239.673,122.718 239.825,122.718 L250.968,122.718 C251.05,122.718 251.118,122.65 251.118,122.568 C251.118,122.544 251.112,122.52 251.1,122.498 L245.796,112.557 C245.731,112.435 245.773,112.276 245.887,112.2 C247.375,111.203 247.86,110.41 247.884,107.402 C247.886,107.264 247.886,107.041 247.885,106.903 C247.842,100.769 246.18,99.234 240.764,99.189 C240.626,99.188 240.403,99.188 240.265,99.188 L221.249,99.188 C221.113,99.188 221,99.301 221,99.438 L221,122.469 C221,122.605 221.113,122.718 221.249,122.718 Z M264.064,102.635 L266.664,102.635 C266.801,102.635 266.913,102.747 266.913,102.884 L266.913,109.211 C266.913,109.348 267.026,109.46 267.163,109.46 L278.364,109.46 C278.591,109.46 278.787,109.277 278.791,109.049 C278.796,108.721 278.786,108.428 278.78,108.205 C278.776,108.067 278.775,107.844 278.774,107.707 C278.721,100.143 276.176,98.738 265.786,98.716 C265.648,98.716 265.424,98.716 265.287,98.717 C253.729,98.745 251.912,100.81 251.876,108.888 C251.875,109.026 251.876,109.249 251.876,109.387 C251.884,121.58 252.529,123.262 265.287,123.284 C265.424,123.284 265.648,123.284 265.786,123.284 C277.497,123.257 278.591,121.35 278.767,112.844 C278.772,112.617 278.591,112.433 278.364,112.433 L267.163,112.433 C267.026,112.433 266.913,112.545 266.913,112.682 L266.913,119.224 C266.913,119.36 266.801,119.473 266.664,119.473 L264.064,119.473 C263.927,119.473 263.814,119.36 263.814,119.224 L263.814,102.884 C263.814,102.747 263.927,102.635 264.064,102.635 Z" />
        </g>
        <g id="Regular-S">
            <path d="M479.013,122.718 L490.391,122.718 C490.543,122.718 490.68,122.628 490.741,122.49 L494.988,112.798 L494.988,103.434 C494.988,103.227 495.158,103.057 495.366,103.057 L497.608,103.057 C497.815,103.057 497.985,103.227 497.985,103.434 L497.985,122.469 C497.985,122.605 498.098,122.718 498.235,122.718 L508.751,122.718 C508.887,122.718 509,122.605 509,122.469 L509,99.438 C509,99.301 508.887,99.189 508.751,99.189 L489.39,99.189 C489.239,99.189 489.101,99.279 489.04,99.417 L478.865,122.49 C478.856,122.51 478.851,122.533 478.851,122.555 C478.851,122.645 478.924,122.718 479.013,122.718 Z M421.249,122.718 L431.956,122.718 C432.092,122.718 432.205,122.605 432.205,122.469 L432.205,103.27 C432.205,103.133 432.318,103.021 432.455,103.021 L434.964,103.021 C435.101,103.021 435.213,103.133 435.213,103.27 L435.213,113.263 L439.471,122.491 C439.534,122.629 439.673,122.718 439.825,122.718 L450.968,122.718 C451.05,122.718 451.118,122.65 451.118,122.568 C451.118,122.544 451.112,122.52 451.1,122.498 L445.796,112.557 C445.731,112.435 445.773,112.276 445.887,112.2 C447.375,111.203 447.86,110.41 447.884,107.402 C447.886,107.264 447.886,107.041 447.885,106.903 C447.842,100.769 446.18,99.234 440.764,99.189 C440.626,99.188 440.403,99.188 440.265,99.188 L421.249,99.188 C421.113,99.188 421,99.301 421,99.438 L421,122.469 C421,122.605 421.113,122.718 421.249,122.718 Z M464.064,102.635 L466.664,102.635 C466.801,102.635 466.913,102.747 466.913,102.884 L466.913,109.211 C466.913,109.348 467.026,109.46 467.163,109.46 L478.364,109.46 C478.591,109.46 478.787,109.277 478.791,109.049 C478.796,108.721 478.786,108.428 478.78,108.205 C478.776,108.067 478.775,107.844 478.774,107.707 C478.721,100.143 476.176,98.738 465.786,98.716 C465.648,98.716 465.424,98.716 465.287,98.717 C453.729,98.745 451.912,100.81 451.876,108.888 C451.875,109.026 451.876,109.249 451.876,109.387 C451.884,121.58 452.529,123.262 465.287,123.284 C465.424,123.284 465.648,123.284 465.786,123.284 C477.497,123.257 478.591,121.35 478.767,112.844 C478.772,112.617 478.591,112.433 478.364,112.433 L467.163,112.433 C467.026,112.433 466.913,112.545 466.913,112.682 L466.913,119.224 C466.913,119.36 466.801,119.473 466.664,119.473 L464.064,119.473 C463.927,119.473 463.814,119.36 463.814,119.224 L463.814,102.884 C463.814,102.747 463.927,102.635 464.064,102.635 Z" />
        </g>
        <g id="Black-S">
            <path d="M679.013,122.718 L690.391,122.718 C690.543,122.718 690.68,122.628 690.741,122.49 L694.988,112.798 L694.988,103.434 C694.988,103.227 695.158,103.057 695.366,103.057 L697.608,103.057 C697.815,103.057 697.985,103.227 697.985,103.434 L697.985,122.469 C697.985,122.605 698.098,122.718 698.234,122.718 L708.75,122.718 C708.887,122.718 709,122.605 709,122.469 L709,99.438 C709,99.301 708.887,99.189 708.75,99.189 L689.39,99.189 C689.239,99.189 689.101,99.279 689.04,99.417 L678.865,122.49 C678.856,122.51 678.851,122.533 678.851,122.555 C678.851,122.645 678.924,122.718 679.013,122.718 Z M621.249,122.718 L631.956,122.718 C632.092,122.718 632.205,122.605 632.205,122.469 L632.205,103.27 C632.205,103.133 632.318,103.021 632.455,103.021 L634.964,103.021 C635.101,103.021 635.213,103.133 635.213,103.27 L635.213,113.263 L639.471,122.491 C639.534,122.629 639.673,122.718 639.825,122.718 L650.968,122.718 C651.05,122.718 651.118,122.65 651.118,122.568 C651.118,122.544 651.112,122.52 651.1,122.498 L645.796,112.557 C645.731,112.435 645.773,112.276 645.887,112.2 C647.375,111.203 647.86,110.41 647.884,107.402 C647.886,107.264 647.886,107.041 647.885,106.903 C647.842,100.769 646.18,99.234 640.764,99.189 C640.626,99.188 640.403,99.188 640.265,99.188 L621.249,99.188 C621.113,99.188 621,99.301 621,99.438 L621,122.469 C621,122.605 621.113,122.718 621.249,122.718 Z M664.064,102.635 L666.664,102.635 C666.801,102.635 666.913,102.747 666.913,102.884 L666.913,109.211 C666.913,109.348 667.026,109.46 667.163,109.46 L678.364,109.46 C678.591,109.46 678.787,109.277 678.791,109.049 C678.796,108.721 678.786,108.428 678.78,108.205 C678.776,108.067 678.775,107.844 678.774,107.707 C678.721,100.143 676.176,98.738 665.786,98.716 C665.648,98.716 665.424,98.716 665.287,98.717 C653.729,98.745 651.912,100.81 651.876,108.888 C651.875,109.026 651.876,109.249 651.876,109.387 C651.884,121.58 652.529,123.262 665.287,123.284 C665.424,123.284 665.648,123.284 665.786,123.284 C677.497,123.257 678.591,121.35 678.767,112.844 C678.772,112.617 678.591,112.433 678.364,112.433 L667.163,112.433 C667.026,112.433 666.913,112.545 666.913,112.682 L666.913,119.224 C666.913,119.36 666.801,119.473 666.664,119.473 L664.064,119.473 C663.927,119.473 663.814,119.36 663.814,119.224 L663.814,102.884 C663.814,102.747 663.927,102.635 664.064,102.635 Z" />
        </g>
    </g>
</svg>